<svg xmlns:inkscape="http://www.inkscape.org/namespaces/inkscape" xmlns:sodipodi="http://sodipodi.sourceforge.net/DTD/sodipodi-0.dtd" xmlns="http://www.w3.org/2000/svg" xmlns:svg="http://www.w3.org/2000/svg" xmlns:rdf="http://www.w3.org/1999/02/22-rdf-syntax-ns#" xmlns:cc="http://creativecommons.org/ns#" xmlns:dc="http://purl.org/dc/elements/1.1/" viewBox="0 0 8.995833 11.244792375" version="1.1" x="0px" y="0px"><g><path style="color:#000000;" d="m 4.5054094,1.9322057 a 0.26458349,0.26458349 0 0 0 -0.1555459,0.05323 l -1.5647617,1.174088 a 0.26460995,0.26460995 0 0 0 0,0.42168 l 1.5647617,1.174089 a 0.26458349,0.26458349 0 0 0 0.3710384,-0.05271 0.26458349,0.26458349 0 0 0 -0.05271,-0.371554 L 3.7364641,3.6339107 h 2.2360413 c 0.7987956,0 1.4355709,0.641927 1.4355709,1.451074 0,0.809146 -0.6367753,1.449524 -1.4355709,1.449524 H 1.3221412 a 0.26458349,0.26458349 0 0 0 -0.2635488,0.265617 0.26458349,0.26458349 0 0 0 0.2635488,0.26355 h 4.6503642 c 1.0852018,0 1.9647376,-0.88792 1.9647376,-1.978691 0,-1.090772 -0.8795358,-1.978174 -1.9647376,-1.978174 H 3.7364641 l 0.9317275,-0.697631 a 0.26458349,0.26458349 0 0 0 0.05271,-0.371037 0.26458349,0.26458349 0 0 0 -0.1741514,-0.103353 0.26458349,0.26458349 0 0 0 -0.041341,-0.0026 z" fill="#000000" stroke-width="1" stroke-linecap="round" stroke-linejoin="round"/></g><text x="0" y="23.9958339" fill="#000000" font-size="5px" font-weight="bold" font-family="'Helvetica Neue', Helvetica, Arial-Unicode, Arial, Sans-serif">Created by Alzam</text><text x="0" y="28.9958339" fill="#000000" font-size="5px" font-weight="bold" font-family="'Helvetica Neue', Helvetica, Arial-Unicode, Arial, Sans-serif">from the Noun Project</text></svg>